<svg width="498" height="498" xmlns="http://www.w3.org/2000/svg" xmlns:xlink="http://www.w3.org/1999/xlink" overflow="hidden"><defs><clipPath id="clip0"><rect x="592" y="-90" width="498" height="498"/></clipPath></defs><g clip-path="url(#clip0)" transform="translate(-592 90)"><path d="M1047.46 8.5625 715.463 8.5625C704.05 8.5625 694.713 17.9 694.713 29.3125L694.713 104.531C700.419 102.975 707.162 101.938 713.388 101.938 717.537 101.938 721.688 102.456 725.838 102.975L725.838 39.6875 1037.09 39.6875 1037.09 236.812 861.231 236.812 831.662 267.938 1047.46 267.938C1058.88 267.938 1068.21 258.6 1068.21 247.188L1068.21 29.3125C1068.21 17.9 1058.88 8.5625 1047.46 8.5625"/><path d="M713.906 210.875C738.287 210.875 758 191.163 758 166.781 758 142.4 738.287 122.688 713.906 122.688 689.525 122.688 669.812 142.4 669.812 166.781 669.294 191.163 689.525 210.875 713.906 210.875"/><path d="M883.537 159.519C876.794 149.144 863.306 146.55 852.931 152.775 850.856 153.812 849.819 155.888 848.781 156.925L773.044 235.775C765.781 232.144 758 229.031 750.219 226.438 738.287 224.362 725.838 221.769 713.906 221.769 701.975 221.769 689.525 223.844 677.594 227.475 659.956 232.144 644.394 240.962 631.425 251.856 628.312 254.969 625.719 259.638 624.681 263.787L613.787 309.438 768.894 309.438 768.894 308.919 812.987 257.562 880.944 185.975C887.169 179.75 889.244 167.819 883.537 159.519"/></g></svg>