<svg xmlns="http://www.w3.org/2000/svg" viewBox="0 0 288 170"><defs><style>.cls-1{fill:#d45500;}.cls-2{fill:#fff;}</style></defs><g id="Layer_2" data-name="Layer 2"><g id="Layer_1-2" data-name="Layer 1"><path class="cls-1" d="M72,0a72,72,0,1,0,72,72A72,72,0,0,0,72,0Z"/><path class="cls-2" d="M49.2,34.51V83.67h.11a22.07,22.07,0,0,1,22.12,22.12V56.62A22.07,22.07,0,0,0,49.31,34.51Zm45.49,0A22.07,22.07,0,0,0,72.57,56.62v49.17A22.07,22.07,0,0,1,94.69,83.67h.11V34.51Zm-60,6.17V98.59C46.52,95.52,61,100.1,71,106.53c-2.43-11-11.06-20.92-21.69-20.37a10.21,10.21,0,0,0-2.48.12s-.11-28.22-.11-42a42.7,42.7,0,0,0-12-3.64Zm74.58,0a42.7,42.7,0,0,0-12,3.64c0,13.74-.11,42-.11,42a10.21,10.21,0,0,0-2.48-.12C84.06,85.61,75.43,95.55,73,106.53c10-6.43,24.48-11,36.29-7.94ZM24.88,46.9H23.63v61.34c16.59-5.78,34.06-5.17,47.45,1.25-7.7-8-27.08-11.89-38.94-7.79.1-18.12,0-36.23,0-54.34a62.05,62.05,0,0,0-7.3-.46Zm94.24,0a62.05,62.05,0,0,0-7.3.46c0,18.11,0,36.22,0,54.34-11.86-4.1-31.24-.22-38.94,7.79,13.39-6.42,30.86-7,47.45-1.25V46.9Z"/></g></g></svg>
